HIERARCHY
ROOT Hips
{
	OFFSET	0.00	0.00	0.00
	CHANNELS 6 Xposition Yposition Zposition Zrotation Xrotation Yrotation
	JOINT LeftUpLeg
	{
		OFFSET	 0.126116	-0.014019	-0.065224
		CHANNELS 3 Zrotation Xrotation Yrotation
		JOINT LeftLeg
		{
			OFFSET	 0.000000	 0.000000	 0.569914
			CHANNELS 3 Zrotation Xrotation Yrotation
			JOINT LeftFoot
			{
				OFFSET	 0.000000	 0.000000	 0.544423
				CHANNELS 3 Zrotation Xrotation Yrotation
				JOINT LeftToeBase
				{
					OFFSET	 0.000000	 0.000000	 0.207117
					CHANNELS 3 Zrotation Xrotation Yrotation
					End Site
					{
						OFFSET	 0.000000	 0.000000	 0.207117
					}
				}
			}
		}
	}
	JOINT RightUpLeg
	{
		OFFSET	-0.124023	-0.008373	-0.065224
		CHANNELS 3 Zrotation Xrotation Yrotation
		JOINT RightLeg
		{
			OFFSET	 0.000000	 0.000000	 0.570047
			CHANNELS 3 Zrotation Xrotation Yrotation
			JOINT RightFoot
			{
				OFFSET	 0.000000	 0.000000	 0.544354
				CHANNELS 3 Zrotation Xrotation Yrotation
				JOINT RightToeBase
				{
					OFFSET	 0.000000	 0.000000	 0.207540
					CHANNELS 3 Zrotation Xrotation Yrotation
					End Site
					{
						OFFSET	 0.000000	 0.000000	 0.207540
					}
				}
			}
		}
	}
	JOINT Spine
	{
		OFFSET	 0.000184	-0.007763	 0.117403
		CHANNELS 3 Zrotation Xrotation Yrotation
		JOINT Spine1
		{
			OFFSET	 0.000000	 0.000000	 0.137269
			CHANNELS 3 Zrotation Xrotation Yrotation
			JOINT Spine2
			{
				OFFSET	 0.000000	 0.000000	 0.156879
				CHANNELS 3 Zrotation Xrotation Yrotation
				JOINT LeftShoulder
				{
					OFFSET	 0.080501	-0.002496	 0.160144
					CHANNELS 3 Zrotation Xrotation Yrotation
					JOINT LeftArm
					{
						OFFSET	 0.000000	 0.000000	 0.164363
						CHANNELS 3 Zrotation Xrotation Yrotation
						JOINT LeftForeArm
						{
							OFFSET	 0.000000	 0.000000	 0.364576
							CHANNELS 3 Zrotation Xrotation Yrotation
							JOINT LeftHand
							{
								OFFSET	 0.000000	 0.000000	 0.360812
								CHANNELS 3 Zrotation Xrotation Yrotation
								JOINT LeftHandIndex1
								{
									OFFSET	 0.000000	 0.000000	 0.086006
									CHANNELS 3 Zrotation Xrotation Yrotation
									JOINT LeftHandIndex2
									{
										OFFSET	 0.000000	 0.000000	 0.047236
										CHANNELS 3 Zrotation Xrotation Yrotation
										JOINT LeftHandIndex3
										{
											OFFSET	-0.004284	-0.000551	 0.038166
											CHANNELS 3 Zrotation Xrotation Yrotation
											End Site
											{
												OFFSET	-0.004284	-0.000551	 0.038166
											}
										}
									}
								}
							}
						}
					}
				}
				JOINT Neck
				{
					OFFSET	 0.000000	 0.000000	 0.176489
					CHANNELS 3 Zrotation Xrotation Yrotation
					JOINT Head
					{
						OFFSET	 0.000000	-0.001747	 0.077940
						CHANNELS 3 Zrotation Xrotation Yrotation
						End Site
						{
							OFFSET	 0.000000	-0.001747	 0.077940
						}
					}
				}
				JOINT RightShoulder
				{
					OFFSET	-0.080363	 0.000306	 0.159706
					CHANNELS 3 Zrotation Xrotation Yrotation
					JOINT RightArm
					{
						OFFSET	 0.000000	 0.000000	 0.164196
						CHANNELS 3 Zrotation Xrotation Yrotation
						JOINT RightForeArm
						{
							OFFSET	 0.000000	 0.000000	 0.365611
							CHANNELS 3 Zrotation Xrotation Yrotation
							JOINT RightHand
							{
								OFFSET	 0.000000	 0.000000	 0.360648
								CHANNELS 3 Zrotation Xrotation Yrotation
								JOINT RightHandIndex1
								{
									OFFSET	 0.000000	 0.000000	 0.069977
									CHANNELS 3 Zrotation Xrotation Yrotation
									JOINT RightHandIndex2
									{
										OFFSET	 0.000000	 0.000000	 0.052305
										CHANNELS 3 Zrotation Xrotation Yrotation
										JOINT RightHandIndex3
										{
											OFFSET	 0.009002	-0.000782	 0.042196
											CHANNELS 3 Zrotation Xrotation Yrotation
											End Site
											{
												OFFSET	 0.009002	-0.000782	 0.042196
											}
										}
									}
								}
							}
						}
					}
				}
			}
		}
	}
}
MOTION
Frames:    6
Frame Time: 0.03333334
-0.083971	 6.752350	 1.251795	-91.884650	 2.830499	 1.745703	-26.356640	-9.309688	 175.926100	 18.806470	-40.925090	 6.427978	-88.646720	 71.923770	 66.682730	-2.217956	 45.778740	-0.443046	 3.752846	-8.757364	-172.731300	-6.756912	-39.538310	 0.849023	 53.096370	 77.946940	-39.063560	 2.062353	 52.967100	 0.702515	-34.312370	 5.514740	 1.844555	-9.580068	 7.158535	-8.706857	 6.912556	-22.232400	 7.900414	-91.229240	 83.958270	 178.242600	 45.363420	 57.756970	-70.102200	-8.736423	 2.555266	-9.227268	 16.862740	 5.875465	-9.768839	-11.191360	 9.620022	-24.211250	-5.213937	-0.202400	 3.566957	-1.378229	 35.397820	-2.634230	 1.331641	 5.583838	-0.931380	-2.160274	-16.197120	-9.464145	 87.727120	 87.419040	-176.799100	-8.852167	 70.760400	 8.492800	 9.087886	 2.532613	 9.221941	-10.616810	-0.708933	 9.598471	-1.673769	 24.221250	-62.480560	 5.070519	-0.690904	-9.399550	-2.350882	 35.473990	 5.254307
-0.083810	 6.789581	 1.253629	-84.723530	 3.751616	 2.029376	-27.902890	-10.739940	 174.174700	 19.805150	-42.181510	 7.270065	-82.637560	 71.161930	 61.155060	-2.276796	 41.763380	-0.323958	-2.590541	-6.867178	-173.305900	-3.329141	-36.574130	 2.841263	 51.309600	 80.235180	-38.782940	 2.065353	 52.854980	 0.697932	-37.782070	 5.094313	 1.700161	-9.362864	 8.309879	-8.796575	 11.351080	-24.531810	 9.744986	-91.229320	 83.958340	 178.242600	 33.403140	 63.596480	-55.939660	-5.604729	 1.788975	-7.941243	 10.751920	 1.453571	-6.554048	-11.019670	 8.578654	-22.808070	-5.213937	-0.202400	 3.566957	-1.378229	 35.397820	-2.634230	 6.369491	 7.915620	-6.818820	 3.232537	-21.051100	 0.066404	 87.726840	 87.418890	-176.798800	-7.354932	 69.855030	 6.856938	 7.267271	 1.775403	 7.948224	-10.320880	-0.596335	 9.728800	-0.652505	 25.793690	-62.700370	 5.070519	-0.690904	-9.399550	-2.350882	 35.473990	 5.254307
-0.083496	 6.817580	 1.254896	-80.085720	 4.084287	 2.371477	-28.308820	-11.691590	 173.113600	 20.706470	-43.484570	 8.081510	-78.632260	 70.465310	 57.521530	-2.384702	 28.703900	-0.005437	-7.258427	-4.848743	-173.963700	-0.860723	-33.665790	 4.022585	 51.134000	 82.149670	-39.899540	 2.164485	 48.576720	 0.537552	-39.083300	 5.007850	 1.369554	-8.638845	 8.841565	-8.475168	 13.849820	-25.078240	 10.572570	-91.229230	 83.958310	 178.242600	 19.540930	 64.832370	-41.831280	-6.157089	 1.251275	-6.798836	 3.842963	-1.524765	-4.852387	-10.602090	 8.931414	-21.607780	-5.213937	-0.202400	 3.566957	-1.378229	 35.397820	-2.634230	 9.587700	 9.376300	-9.633533	 6.998928	-23.522140	 6.212511	 87.727060	 87.419040	-176.799000	-4.781323	 68.692090	 5.060020	 6.002957	 1.220638	 6.814435	-9.079600	-0.859197	 9.590850	-1.035376	 25.363850	-63.341600	 5.070519	-0.690904	-9.399550	-2.350882	 35.473990	 5.254307
-0.077351	 6.852479	 1.256368	-74.188550	 5.349147	 2.172008	-25.879790	-14.968240	 171.268300	 19.775090	-45.366980	 7.677815	-75.494480	 71.355110	 55.294990	-2.370178	 31.483590	-0.066953	-11.252230	-3.888606	-175.001100	 1.043142	-30.901200	 4.720057	 65.834950	 85.678770	-55.245690	 2.309299	 38.802620	 0.245803	-40.242110	 4.802041	 1.128839	-8.425850	 9.054309	-8.245403	 16.624070	-25.182480	 11.525620	-91.229130	 83.958340	 178.242500	 0.694617	 62.637710	-24.157530	-6.567693	 0.656039	-5.186565	-3.795524	-5.574558	-3.881279	-9.979673	 8.911242	-19.400300	-5.213937	-0.202400	 3.566957	-1.378229	 35.397820	-2.634230	 12.780560	 10.964180	-11.904890	 10.866090	-24.937140	 12.560370	 87.726890	 87.418960	-176.798800	-0.381752	 67.075010	 3.568054	 4.256479	 0.605951	 5.206581	-6.971285	-1.501095	 9.270823	-0.489548	 26.322160	-64.185520	 5.070519	-0.690904	-9.399550	-2.350882	 35.473990	 5.254307
-0.069101	 6.896579	 1.255860	-67.201530	 6.420060	 2.652029	-20.570590	-19.437030	 168.928500	 17.614010	-48.153350	 6.402347	-75.894290	 73.972050	 56.549870	-2.353397	 34.019180	-0.125505	-17.590050	-2.420468	-176.706100	 3.517621	-27.142540	 5.363809	 67.824460	 87.956750	-58.961560	 2.340447	 35.468250	 0.161854	-39.599930	 5.476978	-0.134823	-7.846896	 9.179046	-7.656104	 18.474180	-24.889000	 11.363050	-91.229230	 83.958240	 178.242500	-12.658840	 56.722670	-11.977860	-2.942482	 0.096809	-2.927872	-7.994159	-8.825387	-3.381341	-10.637920	 7.375564	-20.672260	-5.213937	-0.202400	 3.566957	-1.378229	 35.397820	-2.634230	 14.831760	 11.383800	-12.600470	 13.468640	-24.455260	 17.394650	 87.726810	 87.419040	-176.798800	 3.188150	 64.396340	 5.323998	 1.925578	 0.052342	 2.960427	-4.272968	-2.420240	 8.937924	-0.869962	 25.824930	-64.419400	 5.070519	-0.690904	-9.399550	-2.350882	 35.473990	 5.254307
-0.065135	 6.914614	 1.254675	-64.614390	 6.746078	 2.681546	-17.332580	-21.433600	 168.739300	 16.787120	-49.178800	 5.871875	-75.319530	 75.063990	 56.195240	-2.379648	 29.758940	-0.028484	-20.136080	-2.131061	-177.071500	 5.188133	-25.971420	 5.895285	 89.019410	 88.627690	-81.536030	 2.372033	 30.898010	 0.055254	-38.130440	 5.706271	-0.165390	-7.442193	 9.760277	-8.704132	 19.643780	-24.586050	 12.478380	-91.229350	 83.958270	 178.242700	-16.447050	 53.597770	-8.222800	 0.019397	-0.067047	-1.780345	-8.676382	-9.570757	-3.042730	-10.775760	 6.746281	-20.727870	-5.213937	-0.202400	 3.566957	-1.378229	 35.397820	-2.634230	 15.368480	 11.868200	-12.498010	 14.261550	-24.755930	 18.879960	 87.727090	 87.418960	-176.799000	 4.923327	 63.497860	 6.483768	-0.361762	-0.108489	 1.815736	-3.827988	-2.990162	 8.663874	-1.108988	 25.406300	-64.051350	 5.070519	-0.690904	-9.399550	-2.350882	 35.473990	 5.254307
